<mxfile host="65bd71144e" scale="4" border="5">
    <diagram id="swmCsaaPqfmFrRvEQ-Fj" name="Page-1">
        <mxGraphModel dx="1385" dy="2113" grid="1" gridSize="10" guides="1" tooltips="1" connect="1" arrows="1" fold="1" page="1" pageScale="1" pageWidth="1654" pageHeight="1169" background="#ffffff" math="0" shadow="0">
            <root>
                <mxCell id="0"/>
                <mxCell id="1" parent="0"/>
                <mxCell id="280" value="" style="whiteSpace=wrap;html=1;aspect=fixed;" vertex="1" parent="1">
                    <mxGeometry x="880" y="60.5" width="220" height="220" as="geometry"/>
                </mxCell>
                <mxCell id="2" value="" style="rounded=0;whiteSpace=wrap;html=1;fontSize=14;strokeColor=default;strokeWidth=1;" parent="1" vertex="1">
                    <mxGeometry x="590" y="250.5" width="120" height="105" as="geometry"/>
                </mxCell>
                <mxCell id="3" value="&lt;span style=&quot;font-size: 14px;&quot;&gt;&lt;b&gt;User&lt;/b&gt;&lt;/span&gt;" style="text;strokeColor=none;align=center;fillColor=none;html=1;verticalAlign=middle;whiteSpace=wrap;rounded=0;strokeWidth=1;" parent="1" vertex="1">
                    <mxGeometry x="590" y="250.5" width="120" height="25" as="geometry"/>
                </mxCell>
                <mxCell id="4" style="edgeStyle=none;html=1;exitX=0;exitY=0;exitDx=0;exitDy=0;entryX=1;entryY=0;entryDx=0;entryDy=0;endArrow=none;endFill=0;" parent="1" edge="1">
                    <mxGeometry relative="1" as="geometry">
                        <mxPoint x="590" y="275.5" as="sourcePoint"/>
                        <mxPoint x="710" y="275.5" as="targetPoint"/>
                    </mxGeometry>
                </mxCell>
                <mxCell id="5" value="&lt;font style=&quot;font-size: 14px;&quot;&gt;Email&lt;/font&gt;" style="text;strokeColor=none;align=center;fillColor=none;html=1;verticalAlign=middle;whiteSpace=wrap;rounded=0;strokeWidth=1;fontStyle=0" parent="1" vertex="1">
                    <mxGeometry x="590" y="295.5" width="120" height="20" as="geometry"/>
                </mxCell>
                <mxCell id="6" value="&lt;font style=&quot;font-size: 14px;&quot;&gt;Password&lt;/font&gt;" style="text;strokeColor=none;align=center;fillColor=none;html=1;verticalAlign=middle;whiteSpace=wrap;rounded=0;strokeWidth=1;fontStyle=0" parent="1" vertex="1">
                    <mxGeometry x="590" y="315.5" width="120" height="20" as="geometry"/>
                </mxCell>
                <mxCell id="82" style="edgeStyle=none;html=1;exitX=0.5;exitY=1;exitDx=0;exitDy=0;entryX=0.5;entryY=0;entryDx=0;entryDy=0;endArrow=none;endFill=0;" parent="1" source="7" target="133" edge="1">
                    <mxGeometry relative="1" as="geometry">
                        <mxPoint x="650" y="400.5" as="targetPoint"/>
                    </mxGeometry>
                </mxCell>
                <mxCell id="7" value="&lt;font style=&quot;font-size: 14px;&quot;&gt;Username&lt;br&gt;&lt;/font&gt;" style="text;strokeColor=none;align=center;fillColor=none;html=1;verticalAlign=middle;whiteSpace=wrap;rounded=0;strokeWidth=1;fontStyle=0" parent="1" vertex="1">
                    <mxGeometry x="590" y="335.5" width="120" height="20" as="geometry"/>
                </mxCell>
                <mxCell id="8" value="&lt;span style=&quot;border-bottom: 1px solid black&quot;&gt;&lt;font style=&quot;font-size: 14px;&quot;&gt;ID&lt;/font&gt;&lt;/span&gt;" style="text;strokeColor=none;align=center;fillColor=none;html=1;verticalAlign=middle;whiteSpace=wrap;rounded=0;strokeWidth=1;labelPosition=center;verticalLabelPosition=middle;" parent="1" vertex="1">
                    <mxGeometry x="590" y="275.5" width="120" height="20" as="geometry"/>
                </mxCell>
                <mxCell id="112" style="edgeStyle=none;html=1;exitX=0;exitY=0.5;exitDx=0;exitDy=0;entryX=1;entryY=0.5;entryDx=0;entryDy=0;endArrow=none;endFill=0;" edge="1" parent="1" source="185" target="5">
                    <mxGeometry relative="1" as="geometry">
                        <mxPoint x="775" y="315.5" as="sourcePoint"/>
                    </mxGeometry>
                </mxCell>
                <mxCell id="41" value="" style="rounded=0;whiteSpace=wrap;html=1;fontSize=14;strokeColor=default;strokeWidth=1;" parent="1" vertex="1">
                    <mxGeometry x="590" y="711" width="120" height="125" as="geometry"/>
                </mxCell>
                <mxCell id="42" value="&lt;b&gt;&lt;font style=&quot;font-size: 14px;&quot;&gt;GameCard&lt;/font&gt;&lt;/b&gt;" style="text;strokeColor=none;align=center;fillColor=none;html=1;verticalAlign=middle;whiteSpace=wrap;rounded=0;strokeWidth=1;" parent="1" vertex="1">
                    <mxGeometry x="590" y="711" width="120" height="25" as="geometry"/>
                </mxCell>
                <mxCell id="43" style="edgeStyle=none;html=1;exitX=0;exitY=0;exitDx=0;exitDy=0;entryX=1;entryY=0;entryDx=0;entryDy=0;endArrow=none;endFill=0;" parent="1" edge="1">
                    <mxGeometry relative="1" as="geometry">
                        <mxPoint x="590" y="736" as="sourcePoint"/>
                        <mxPoint x="710" y="736" as="targetPoint"/>
                    </mxGeometry>
                </mxCell>
                <mxCell id="44" value="&lt;font style=&quot;font-size: 14px;&quot;&gt;Title&lt;/font&gt;" style="text;strokeColor=none;align=center;fillColor=none;html=1;verticalAlign=middle;whiteSpace=wrap;rounded=0;strokeWidth=1;fontStyle=0" parent="1" vertex="1">
                    <mxGeometry x="590" y="756" width="120" height="20" as="geometry"/>
                </mxCell>
                <mxCell id="45" value="&lt;font style=&quot;font-size: 14px;&quot;&gt;Rules&lt;/font&gt;" style="text;strokeColor=none;align=center;fillColor=none;html=1;verticalAlign=middle;whiteSpace=wrap;rounded=0;strokeWidth=1;fontStyle=0" parent="1" vertex="1">
                    <mxGeometry x="590" y="776" width="120" height="20" as="geometry"/>
                </mxCell>
                <mxCell id="46" value="&lt;font style=&quot;font-size: 14px;&quot;&gt;Description&lt;/font&gt;" style="text;strokeColor=none;align=center;fillColor=none;html=1;verticalAlign=middle;whiteSpace=wrap;rounded=0;strokeWidth=1;fontStyle=0" parent="1" vertex="1">
                    <mxGeometry x="590" y="796" width="120" height="20" as="geometry"/>
                </mxCell>
                <mxCell id="47" value="&lt;font style=&quot;font-size: 14px;&quot;&gt;Avg Rating&lt;/font&gt;" style="text;strokeColor=none;align=center;fillColor=none;html=1;verticalAlign=middle;whiteSpace=wrap;rounded=0;strokeWidth=1;fontStyle=0" parent="1" vertex="1">
                    <mxGeometry x="590" y="816" width="120" height="20" as="geometry"/>
                </mxCell>
                <mxCell id="48" value="&lt;span style=&quot;border-bottom: 1px solid black&quot;&gt;&lt;font style=&quot;font-size: 14px;&quot;&gt;ID&lt;/font&gt;&lt;/span&gt;" style="text;strokeColor=none;align=center;fillColor=none;html=1;verticalAlign=middle;whiteSpace=wrap;rounded=0;strokeWidth=1;labelPosition=center;verticalLabelPosition=middle;" parent="1" vertex="1">
                    <mxGeometry x="590" y="736" width="120" height="20" as="geometry"/>
                </mxCell>
                <mxCell id="83" style="edgeStyle=none;html=1;exitX=0.5;exitY=1;exitDx=0;exitDy=0;endArrow=none;endFill=0;entryX=0.5;entryY=0;entryDx=0;entryDy=0;" parent="1" source="133" target="161" edge="1">
                    <mxGeometry relative="1" as="geometry">
                        <mxPoint x="650" y="440.5" as="sourcePoint"/>
                        <mxPoint x="649.9999999999998" y="485.5" as="targetPoint"/>
                    </mxGeometry>
                </mxCell>
                <mxCell id="77" value="&lt;b&gt;UserRating&lt;/b&gt;" style="text;strokeColor=none;align=left;fillColor=none;html=1;verticalAlign=middle;whiteSpace=wrap;rounded=0;fontSize=14;" parent="1" vertex="1">
                    <mxGeometry x="675" y="410.5" width="60" height="20" as="geometry"/>
                </mxCell>
                <mxCell id="84" value="(0, n)" style="text;strokeColor=none;align=center;fillColor=none;html=1;verticalAlign=middle;whiteSpace=wrap;rounded=0;fontSize=14;" parent="1" vertex="1">
                    <mxGeometry x="650.5" y="681" width="40" height="30" as="geometry"/>
                </mxCell>
                <mxCell id="85" value="(0, n)" style="text;strokeColor=none;align=center;fillColor=none;html=1;verticalAlign=middle;whiteSpace=wrap;rounded=0;fontSize=14;" parent="1" vertex="1">
                    <mxGeometry x="650.5" y="355.5" width="40" height="25" as="geometry"/>
                </mxCell>
                <mxCell id="101" value="" style="rounded=0;whiteSpace=wrap;html=1;fontSize=14;strokeColor=default;strokeWidth=1;" vertex="1" parent="1">
                    <mxGeometry x="885" y="741" width="120" height="65" as="geometry"/>
                </mxCell>
                <mxCell id="102" value="&lt;b&gt;&lt;font style=&quot;font-size: 14px;&quot;&gt;Category&lt;/font&gt;&lt;/b&gt;" style="text;strokeColor=none;align=center;fillColor=none;html=1;verticalAlign=middle;whiteSpace=wrap;rounded=0;strokeWidth=1;" vertex="1" parent="1">
                    <mxGeometry x="885" y="741" width="120" height="25" as="geometry"/>
                </mxCell>
                <mxCell id="103" style="edgeStyle=none;html=1;exitX=0;exitY=0;exitDx=0;exitDy=0;entryX=1;entryY=0;entryDx=0;entryDy=0;endArrow=none;endFill=0;" edge="1" parent="1">
                    <mxGeometry relative="1" as="geometry">
                        <mxPoint x="885" y="766" as="sourcePoint"/>
                        <mxPoint x="1005.0000000000002" y="766" as="targetPoint"/>
                    </mxGeometry>
                </mxCell>
                <mxCell id="104" value="&lt;font style=&quot;font-size: 14px;&quot;&gt;Name&lt;/font&gt;" style="text;strokeColor=none;align=center;fillColor=none;html=1;verticalAlign=middle;whiteSpace=wrap;rounded=0;strokeWidth=1;fontStyle=0" vertex="1" parent="1">
                    <mxGeometry x="885" y="786" width="120" height="20" as="geometry"/>
                </mxCell>
                <mxCell id="105" value="&lt;span style=&quot;border-bottom: 1px solid black&quot;&gt;&lt;font style=&quot;font-size: 14px;&quot;&gt;ID&lt;/font&gt;&lt;/span&gt;" style="text;strokeColor=none;align=center;fillColor=none;html=1;verticalAlign=middle;whiteSpace=wrap;rounded=0;strokeWidth=1;labelPosition=center;verticalLabelPosition=middle;" vertex="1" parent="1">
                    <mxGeometry x="885" y="766" width="120" height="20" as="geometry"/>
                </mxCell>
                <mxCell id="111" value="(0, n)" style="text;strokeColor=none;align=center;fillColor=none;html=1;verticalAlign=middle;whiteSpace=wrap;rounded=0;fontSize=14;" vertex="1" parent="1">
                    <mxGeometry x="710" y="280" width="40" height="30" as="geometry"/>
                </mxCell>
                <mxCell id="132" value="(1, 1)" style="text;strokeColor=none;align=center;fillColor=none;html=1;verticalAlign=middle;whiteSpace=wrap;rounded=0;fontSize=14;" vertex="1" parent="1">
                    <mxGeometry x="650.5" y="455.5" width="40" height="30" as="geometry"/>
                </mxCell>
                <mxCell id="133" value="" style="rhombus;whiteSpace=wrap;html=1;fontSize=14;strokeColor=default;" vertex="1" parent="1">
                    <mxGeometry x="630.0000000000001" y="400.5" width="40" height="40" as="geometry"/>
                </mxCell>
                <mxCell id="135" value="" style="rhombus;whiteSpace=wrap;html=1;fontSize=14;strokeColor=default;" vertex="1" parent="1">
                    <mxGeometry x="635" y="405.5" width="30" height="30" as="geometry"/>
                </mxCell>
                <mxCell id="136" style="edgeStyle=none;html=1;exitX=0.5;exitY=1;exitDx=0;exitDy=0;entryX=0.5;entryY=0;entryDx=0;entryDy=0;endArrow=none;endFill=0;" edge="1" parent="1" target="141" source="161">
                    <mxGeometry relative="1" as="geometry">
                        <mxPoint x="649.9999999999998" y="581" as="sourcePoint"/>
                        <mxPoint x="650" y="626" as="targetPoint"/>
                    </mxGeometry>
                </mxCell>
                <mxCell id="137" style="edgeStyle=none;html=1;exitX=0.5;exitY=1;exitDx=0;exitDy=0;endArrow=none;endFill=0;entryX=0.5;entryY=0;entryDx=0;entryDy=0;" edge="1" parent="1" source="141" target="42">
                    <mxGeometry relative="1" as="geometry">
                        <mxPoint x="650" y="666" as="sourcePoint"/>
                        <mxPoint x="650" y="711" as="targetPoint"/>
                    </mxGeometry>
                </mxCell>
                <mxCell id="138" value="&lt;b&gt;GameCardRating&lt;/b&gt;" style="text;strokeColor=none;align=left;fillColor=none;html=1;verticalAlign=middle;whiteSpace=wrap;rounded=0;fontSize=14;" vertex="1" parent="1">
                    <mxGeometry x="675" y="636" width="60" height="20" as="geometry"/>
                </mxCell>
                <mxCell id="139" value="(1, 1)" style="text;strokeColor=none;align=center;fillColor=none;html=1;verticalAlign=middle;whiteSpace=wrap;rounded=0;fontSize=14;" vertex="1" parent="1">
                    <mxGeometry x="650.5" y="581" width="40" height="25" as="geometry"/>
                </mxCell>
                <mxCell id="141" value="" style="rhombus;whiteSpace=wrap;html=1;fontSize=14;strokeColor=default;" vertex="1" parent="1">
                    <mxGeometry x="630.0000000000001" y="626" width="40" height="40" as="geometry"/>
                </mxCell>
                <mxCell id="142" value="" style="rhombus;whiteSpace=wrap;html=1;fontSize=14;strokeColor=default;" vertex="1" parent="1">
                    <mxGeometry x="635" y="631" width="30" height="30" as="geometry"/>
                </mxCell>
                <mxCell id="143" style="edgeStyle=none;html=1;exitX=0.5;exitY=1;exitDx=0;exitDy=0;entryX=0.5;entryY=0;entryDx=0;entryDy=0;endArrow=none;endFill=0;" edge="1" parent="1" target="144" source="152">
                    <mxGeometry relative="1" as="geometry">
                        <mxPoint x="650" y="143" as="sourcePoint"/>
                        <mxPoint x="650.0000000000002" y="163" as="targetPoint"/>
                    </mxGeometry>
                </mxCell>
                <mxCell id="144" value="" style="rhombus;whiteSpace=wrap;html=1;fontSize=14;strokeColor=default;" vertex="1" parent="1">
                    <mxGeometry x="630.0000000000001" y="178" width="40" height="40" as="geometry"/>
                </mxCell>
                <mxCell id="145" value="&lt;b&gt;HasRole&lt;/b&gt;" style="text;strokeColor=none;align=left;fillColor=none;html=1;verticalAlign=middle;whiteSpace=wrap;rounded=0;fontSize=14;" vertex="1" parent="1">
                    <mxGeometry x="675" y="188" width="60" height="20" as="geometry"/>
                </mxCell>
                <mxCell id="146" style="edgeStyle=none;html=1;exitX=0.5;exitY=1;exitDx=0;exitDy=0;entryX=0.5;entryY=0;entryDx=0;entryDy=0;endArrow=none;endFill=0;" edge="1" parent="1" source="144" target="3">
                    <mxGeometry relative="1" as="geometry">
                        <mxPoint x="650.5" y="238" as="sourcePoint"/>
                        <mxPoint x="650" y="248" as="targetPoint"/>
                    </mxGeometry>
                </mxCell>
                <mxCell id="147" value="(0, n)" style="text;strokeColor=none;align=center;fillColor=none;html=1;verticalAlign=middle;whiteSpace=wrap;rounded=0;fontSize=14;" vertex="1" parent="1">
                    <mxGeometry x="651" y="145" width="40" height="20" as="geometry"/>
                </mxCell>
                <mxCell id="148" value="(1, n)" style="text;strokeColor=none;align=center;fillColor=none;html=1;verticalAlign=middle;whiteSpace=wrap;rounded=0;fontSize=14;" vertex="1" parent="1">
                    <mxGeometry x="651" y="226" width="40" height="20" as="geometry"/>
                </mxCell>
                <mxCell id="149" value="" style="rounded=0;whiteSpace=wrap;html=1;fontSize=14;strokeColor=default;strokeWidth=1;" vertex="1" parent="1">
                    <mxGeometry x="590" y="80" width="120" height="65" as="geometry"/>
                </mxCell>
                <mxCell id="150" value="&lt;b&gt;&lt;font style=&quot;font-size: 14px;&quot;&gt;Role&lt;/font&gt;&lt;/b&gt;" style="text;strokeColor=none;align=center;fillColor=none;html=1;verticalAlign=middle;whiteSpace=wrap;rounded=0;strokeWidth=1;" vertex="1" parent="1">
                    <mxGeometry x="590" y="80" width="120" height="25" as="geometry"/>
                </mxCell>
                <mxCell id="151" style="edgeStyle=none;html=1;exitX=0;exitY=0;exitDx=0;exitDy=0;entryX=1;entryY=0;entryDx=0;entryDy=0;endArrow=none;endFill=0;" edge="1" parent="1">
                    <mxGeometry relative="1" as="geometry">
                        <mxPoint x="590" y="105" as="sourcePoint"/>
                        <mxPoint x="710.0000000000002" y="105" as="targetPoint"/>
                    </mxGeometry>
                </mxCell>
                <mxCell id="152" value="&lt;font style=&quot;font-size: 14px;&quot;&gt;Name&lt;/font&gt;" style="text;strokeColor=none;align=center;fillColor=none;html=1;verticalAlign=middle;whiteSpace=wrap;rounded=0;strokeWidth=1;fontStyle=0" vertex="1" parent="1">
                    <mxGeometry x="590" y="125" width="120" height="20" as="geometry"/>
                </mxCell>
                <mxCell id="153" value="&lt;span style=&quot;border-bottom: 1px solid black&quot;&gt;&lt;font style=&quot;font-size: 14px;&quot;&gt;ID&lt;/font&gt;&lt;/span&gt;" style="text;strokeColor=none;align=center;fillColor=none;html=1;verticalAlign=middle;whiteSpace=wrap;rounded=0;strokeWidth=1;labelPosition=center;verticalLabelPosition=middle;" vertex="1" parent="1">
                    <mxGeometry x="590" y="105" width="120" height="20" as="geometry"/>
                </mxCell>
                <mxCell id="154" value="" style="rounded=0;whiteSpace=wrap;html=1;fontSize=14;strokeColor=default;strokeWidth=1;" vertex="1" parent="1">
                    <mxGeometry x="840" y="373" width="140" height="95" as="geometry"/>
                </mxCell>
                <mxCell id="155" value="" style="rounded=0;whiteSpace=wrap;html=1;fontSize=14;strokeColor=default;strokeWidth=1;" vertex="1" parent="1">
                    <mxGeometry x="845" y="378" width="130" height="85" as="geometry"/>
                </mxCell>
                <mxCell id="156" value="&lt;b&gt;&lt;font style=&quot;font-size: 14px;&quot;&gt;CommentReport&lt;/font&gt;&lt;/b&gt;" style="text;strokeColor=none;align=center;fillColor=none;html=1;verticalAlign=middle;whiteSpace=wrap;rounded=0;strokeWidth=1;" vertex="1" parent="1">
                    <mxGeometry x="845" y="378" width="130" height="25" as="geometry"/>
                </mxCell>
                <mxCell id="157" value="&lt;span style=&quot;border-color: var(--border-color); font-size: 14px;&quot;&gt;Reason&lt;/span&gt;" style="text;strokeColor=none;align=center;fillColor=none;html=1;verticalAlign=middle;whiteSpace=wrap;rounded=0;strokeWidth=1;" vertex="1" parent="1">
                    <mxGeometry x="845" y="423" width="130" height="20" as="geometry"/>
                </mxCell>
                <mxCell id="159" style="edgeStyle=none;html=1;exitX=0;exitY=0;exitDx=0;exitDy=0;entryX=1;entryY=1;entryDx=0;entryDy=0;endArrow=none;endFill=0;" edge="1" parent="1" target="156">
                    <mxGeometry relative="1" as="geometry">
                        <mxPoint x="845" y="403" as="sourcePoint"/>
                        <mxPoint x="955" y="403" as="targetPoint"/>
                    </mxGeometry>
                </mxCell>
                <mxCell id="160" value="&lt;span style=&quot;border-bottom: 1px dashed black&quot;&gt;&lt;font style=&quot;font-size: 14px;&quot;&gt;ID&lt;/font&gt;&lt;/span&gt;" style="text;strokeColor=none;align=center;fillColor=none;html=1;verticalAlign=middle;whiteSpace=wrap;rounded=0;strokeWidth=1;" vertex="1" parent="1">
                    <mxGeometry x="845" y="403" width="130" height="20" as="geometry"/>
                </mxCell>
                <mxCell id="161" value="" style="rounded=0;whiteSpace=wrap;html=1;fontSize=14;strokeColor=default;strokeWidth=1;" vertex="1" parent="1">
                    <mxGeometry x="590" y="485.5" width="120" height="95" as="geometry"/>
                </mxCell>
                <mxCell id="162" value="" style="rounded=0;whiteSpace=wrap;html=1;fontSize=14;strokeColor=default;strokeWidth=1;" vertex="1" parent="1">
                    <mxGeometry x="595" y="490.5" width="110" height="85" as="geometry"/>
                </mxCell>
                <mxCell id="163" value="&lt;b&gt;&lt;font style=&quot;font-size: 14px;&quot;&gt;Rating&lt;/font&gt;&lt;/b&gt;" style="text;strokeColor=none;align=center;fillColor=none;html=1;verticalAlign=middle;whiteSpace=wrap;rounded=0;strokeWidth=1;" vertex="1" parent="1">
                    <mxGeometry x="595" y="490.5" width="110" height="25" as="geometry"/>
                </mxCell>
                <mxCell id="164" value="&lt;span style=&quot;border-color: var(--border-color); font-size: 14px;&quot;&gt;Score&lt;/span&gt;" style="text;strokeColor=none;align=center;fillColor=none;html=1;verticalAlign=middle;whiteSpace=wrap;rounded=0;strokeWidth=1;" vertex="1" parent="1">
                    <mxGeometry x="595" y="535.5" width="110" height="20" as="geometry"/>
                </mxCell>
                <mxCell id="165" value="&lt;span style=&quot;border-color: var(--border-color); font-size: 14px;&quot;&gt;Comment&lt;/span&gt;" style="text;strokeColor=none;align=center;fillColor=none;html=1;verticalAlign=middle;whiteSpace=wrap;rounded=0;strokeWidth=1;" vertex="1" parent="1">
                    <mxGeometry x="595" y="555.5" width="110" height="20" as="geometry"/>
                </mxCell>
                <mxCell id="166" style="edgeStyle=none;html=1;exitX=0;exitY=0;exitDx=0;exitDy=0;entryX=1;entryY=0;entryDx=0;entryDy=0;endArrow=none;endFill=0;" edge="1" parent="1">
                    <mxGeometry relative="1" as="geometry">
                        <mxPoint x="595" y="515.5" as="sourcePoint"/>
                        <mxPoint x="705" y="515.5" as="targetPoint"/>
                    </mxGeometry>
                </mxCell>
                <mxCell id="167" value="&lt;span style=&quot;border-bottom: 1px dashed black&quot;&gt;&lt;font style=&quot;font-size: 14px;&quot;&gt;ID&lt;/font&gt;&lt;/span&gt;" style="text;strokeColor=none;align=center;fillColor=none;html=1;verticalAlign=middle;whiteSpace=wrap;rounded=0;strokeWidth=1;" vertex="1" parent="1">
                    <mxGeometry x="595" y="515.5" width="110" height="20" as="geometry"/>
                </mxCell>
                <mxCell id="168" value="&lt;span style=&quot;font-size: 14px;&quot;&gt;Description&lt;/span&gt;" style="text;strokeColor=none;align=center;fillColor=none;html=1;verticalAlign=middle;whiteSpace=wrap;rounded=0;strokeWidth=1;" vertex="1" parent="1">
                    <mxGeometry x="845" y="442.5" width="130" height="20" as="geometry"/>
                </mxCell>
                <mxCell id="169" value="" style="rounded=0;whiteSpace=wrap;html=1;fontSize=14;strokeColor=default;strokeWidth=1;" vertex="1" parent="1">
                    <mxGeometry x="400" y="485.5" width="140" height="95" as="geometry"/>
                </mxCell>
                <mxCell id="170" value="" style="rounded=0;whiteSpace=wrap;html=1;fontSize=14;strokeColor=default;strokeWidth=1;" vertex="1" parent="1">
                    <mxGeometry x="405" y="490.5" width="130" height="85" as="geometry"/>
                </mxCell>
                <mxCell id="171" value="&lt;b&gt;&lt;font style=&quot;font-size: 14px;&quot;&gt;GameReport&lt;/font&gt;&lt;/b&gt;" style="text;strokeColor=none;align=center;fillColor=none;html=1;verticalAlign=middle;whiteSpace=wrap;rounded=0;strokeWidth=1;" vertex="1" parent="1">
                    <mxGeometry x="405" y="490.5" width="130" height="25" as="geometry"/>
                </mxCell>
                <mxCell id="172" value="&lt;span style=&quot;border-color: var(--border-color); font-size: 14px;&quot;&gt;Reason&lt;/span&gt;" style="text;strokeColor=none;align=center;fillColor=none;html=1;verticalAlign=middle;whiteSpace=wrap;rounded=0;strokeWidth=1;" vertex="1" parent="1">
                    <mxGeometry x="405" y="535.5" width="130" height="20" as="geometry"/>
                </mxCell>
                <mxCell id="173" style="edgeStyle=none;html=1;exitX=0;exitY=0;exitDx=0;exitDy=0;entryX=1;entryY=1;entryDx=0;entryDy=0;endArrow=none;endFill=0;" edge="1" parent="1" target="171">
                    <mxGeometry relative="1" as="geometry">
                        <mxPoint x="405" y="515.5" as="sourcePoint"/>
                        <mxPoint x="515" y="515.5" as="targetPoint"/>
                    </mxGeometry>
                </mxCell>
                <mxCell id="174" value="&lt;span style=&quot;border-bottom: 1px dashed black&quot;&gt;&lt;font style=&quot;font-size: 14px;&quot;&gt;ID&lt;/font&gt;&lt;/span&gt;" style="text;strokeColor=none;align=center;fillColor=none;html=1;verticalAlign=middle;whiteSpace=wrap;rounded=0;strokeWidth=1;" vertex="1" parent="1">
                    <mxGeometry x="405" y="515.5" width="130" height="20" as="geometry"/>
                </mxCell>
                <mxCell id="175" value="&lt;span style=&quot;font-size: 14px;&quot;&gt;Description&lt;/span&gt;" style="text;strokeColor=none;align=center;fillColor=none;html=1;verticalAlign=middle;whiteSpace=wrap;rounded=0;strokeWidth=1;" vertex="1" parent="1">
                    <mxGeometry x="405" y="555" width="130" height="20" as="geometry"/>
                </mxCell>
                <mxCell id="176" value="(0, n)" style="text;strokeColor=none;align=center;fillColor=none;html=1;verticalAlign=middle;whiteSpace=wrap;rounded=0;fontSize=14;" vertex="1" parent="1">
                    <mxGeometry x="710" y="502.5" width="40" height="30" as="geometry"/>
                </mxCell>
                <mxCell id="178" value="&lt;b&gt;UserCRep&lt;/b&gt;" style="text;strokeColor=none;align=center;fillColor=none;html=1;verticalAlign=middle;whiteSpace=wrap;rounded=0;fontSize=14;" vertex="1" parent="1">
                    <mxGeometry x="790" y="260.5" width="60" height="20" as="geometry"/>
                </mxCell>
                <mxCell id="181" style="edgeStyle=none;html=1;exitX=0;exitY=0.5;exitDx=0;exitDy=0;entryX=1;entryY=0.5;entryDx=0;entryDy=0;endArrow=none;endFill=0;" edge="1" parent="1" source="188" target="161">
                    <mxGeometry relative="1" as="geometry">
                        <mxPoint x="795" y="536" as="sourcePoint"/>
                    </mxGeometry>
                </mxCell>
                <mxCell id="185" value="" style="rhombus;whiteSpace=wrap;html=1;fontSize=14;strokeColor=default;" vertex="1" parent="1">
                    <mxGeometry x="800" y="285.5" width="40" height="40" as="geometry"/>
                </mxCell>
                <mxCell id="186" value="" style="rhombus;whiteSpace=wrap;html=1;fontSize=14;strokeColor=default;" vertex="1" parent="1">
                    <mxGeometry x="805" y="290.5" width="30" height="30" as="geometry"/>
                </mxCell>
                <mxCell id="187" value="&lt;b&gt;RatingCRep&lt;/b&gt;" style="text;strokeColor=none;align=center;fillColor=none;html=1;verticalAlign=middle;whiteSpace=wrap;rounded=0;fontSize=14;" vertex="1" parent="1">
                    <mxGeometry x="790" y="488" width="60" height="20" as="geometry"/>
                </mxCell>
                <mxCell id="188" value="" style="rhombus;whiteSpace=wrap;html=1;fontSize=14;strokeColor=default;" vertex="1" parent="1">
                    <mxGeometry x="800" y="513" width="40" height="40" as="geometry"/>
                </mxCell>
                <mxCell id="189" value="" style="rhombus;whiteSpace=wrap;html=1;fontSize=14;strokeColor=default;" vertex="1" parent="1">
                    <mxGeometry x="805" y="518" width="30" height="30" as="geometry"/>
                </mxCell>
                <mxCell id="190" value="" style="edgeStyle=segmentEdgeStyle;endArrow=none;html=1;curved=0;rounded=0;endSize=8;startSize=8;endFill=0;entryX=0.5;entryY=1;entryDx=0;entryDy=0;exitX=1;exitY=0.5;exitDx=0;exitDy=0;" edge="1" parent="1" source="188" target="154">
                    <mxGeometry width="50" height="50" relative="1" as="geometry">
                        <mxPoint x="890" y="550" as="sourcePoint"/>
                        <mxPoint x="930.0000000000002" y="510" as="targetPoint"/>
                        <Array as="points">
                            <mxPoint x="910" y="533"/>
                        </Array>
                    </mxGeometry>
                </mxCell>
                <mxCell id="192" value="(1, 1)" style="text;strokeColor=none;align=center;fillColor=none;html=1;verticalAlign=middle;whiteSpace=wrap;rounded=0;fontSize=14;" vertex="1" parent="1">
                    <mxGeometry x="910" y="343" width="40" height="30" as="geometry"/>
                </mxCell>
                <mxCell id="193" value="(1, 1)" style="text;strokeColor=none;align=center;fillColor=none;html=1;verticalAlign=middle;whiteSpace=wrap;rounded=0;fontSize=14;" vertex="1" parent="1">
                    <mxGeometry x="910" y="468" width="40" height="30" as="geometry"/>
                </mxCell>
                <mxCell id="196" style="edgeStyle=none;html=1;exitX=0;exitY=0.5;exitDx=0;exitDy=0;entryX=1;entryY=0;entryDx=0;entryDy=0;endArrow=none;endFill=0;" edge="1" parent="1" source="194" target="45">
                    <mxGeometry relative="1" as="geometry"/>
                </mxCell>
                <mxCell id="197" style="edgeStyle=none;html=1;exitX=1;exitY=0.5;exitDx=0;exitDy=0;entryX=0;entryY=0.5;entryDx=0;entryDy=0;endArrow=none;endFill=0;" edge="1" parent="1" source="194" target="105">
                    <mxGeometry relative="1" as="geometry"/>
                </mxCell>
                <mxCell id="194" value="" style="rhombus;whiteSpace=wrap;html=1;fontSize=14;strokeColor=default;" vertex="1" parent="1">
                    <mxGeometry x="777.0000000000001" y="756" width="40" height="40" as="geometry"/>
                </mxCell>
                <mxCell id="195" value="&lt;b&gt;HasCategory&lt;/b&gt;" style="text;strokeColor=none;align=center;fillColor=none;html=1;verticalAlign=middle;whiteSpace=wrap;rounded=0;fontSize=14;" vertex="1" parent="1">
                    <mxGeometry x="767" y="736" width="60" height="20" as="geometry"/>
                </mxCell>
                <mxCell id="198" value="(0, n)" style="text;strokeColor=none;align=center;fillColor=none;html=1;verticalAlign=middle;whiteSpace=wrap;rounded=0;fontSize=14;" vertex="1" parent="1">
                    <mxGeometry x="710" y="746" width="40" height="30" as="geometry"/>
                </mxCell>
                <mxCell id="199" value="(0, n)" style="text;strokeColor=none;align=center;fillColor=none;html=1;verticalAlign=middle;whiteSpace=wrap;rounded=0;fontSize=14;" vertex="1" parent="1">
                    <mxGeometry x="845" y="746" width="40" height="30" as="geometry"/>
                </mxCell>
                <mxCell id="202" value="" style="rhombus;whiteSpace=wrap;html=1;fontSize=14;strokeColor=default;" vertex="1" parent="1">
                    <mxGeometry x="450.0000000000001" y="401" width="40" height="40" as="geometry"/>
                </mxCell>
                <mxCell id="203" value="&lt;b style=&quot;border-color: var(--border-color); text-align: center;&quot;&gt;UserGRep&lt;/b&gt;" style="text;strokeColor=none;align=left;fillColor=none;html=1;verticalAlign=middle;whiteSpace=wrap;rounded=0;fontSize=14;" vertex="1" parent="1">
                    <mxGeometry x="495" y="411" width="60" height="20" as="geometry"/>
                </mxCell>
                <mxCell id="204" value="" style="rhombus;whiteSpace=wrap;html=1;fontSize=14;strokeColor=default;" vertex="1" parent="1">
                    <mxGeometry x="455" y="406" width="30" height="30" as="geometry"/>
                </mxCell>
                <mxCell id="205" value="" style="rhombus;whiteSpace=wrap;html=1;fontSize=14;strokeColor=default;" vertex="1" parent="1">
                    <mxGeometry x="450.0000000000001" y="626" width="40" height="40" as="geometry"/>
                </mxCell>
                <mxCell id="206" value="&lt;b style=&quot;border-color: var(--border-color); text-align: center;&quot;&gt;GameCardGRep&lt;/b&gt;" style="text;strokeColor=none;align=left;fillColor=none;html=1;verticalAlign=middle;whiteSpace=wrap;rounded=0;fontSize=14;" vertex="1" parent="1">
                    <mxGeometry x="495" y="636" width="60" height="20" as="geometry"/>
                </mxCell>
                <mxCell id="207" value="" style="rhombus;whiteSpace=wrap;html=1;fontSize=14;strokeColor=default;" vertex="1" parent="1">
                    <mxGeometry x="455" y="631" width="30" height="30" as="geometry"/>
                </mxCell>
                <mxCell id="208" value="" style="edgeStyle=none;orthogonalLoop=1;jettySize=auto;html=1;fontSize=14;endArrow=none;endFill=0;fontColor=#000000;strokeColor=#000000;exitX=0.5;exitY=1;exitDx=0;exitDy=0;entryX=0.5;entryY=0;entryDx=0;entryDy=0;" edge="1" parent="1" source="169" target="205">
                    <mxGeometry width="80" relative="1" as="geometry">
                        <mxPoint x="420" y="700" as="sourcePoint"/>
                        <mxPoint x="470" y="725" as="targetPoint"/>
                        <Array as="points"/>
                    </mxGeometry>
                </mxCell>
                <mxCell id="209" value="" style="edgeStyle=none;orthogonalLoop=1;jettySize=auto;html=1;fontSize=14;endArrow=none;endFill=0;fontColor=#000000;strokeColor=#000000;exitX=0.5;exitY=1;exitDx=0;exitDy=0;entryX=0.5;entryY=0;entryDx=0;entryDy=0;" edge="1" parent="1" source="202" target="169">
                    <mxGeometry width="80" relative="1" as="geometry">
                        <mxPoint x="480" y="590.5" as="sourcePoint"/>
                        <mxPoint x="470" y="480" as="targetPoint"/>
                        <Array as="points"/>
                    </mxGeometry>
                </mxCell>
                <mxCell id="210" value="" style="edgeStyle=segmentEdgeStyle;endArrow=none;html=1;curved=0;rounded=0;endSize=8;startSize=8;endFill=0;entryX=0.5;entryY=0;entryDx=0;entryDy=0;exitX=0;exitY=0.25;exitDx=0;exitDy=0;" edge="1" parent="1" source="7" target="202">
                    <mxGeometry width="50" height="50" relative="1" as="geometry">
                        <mxPoint x="540" y="360" as="sourcePoint"/>
                        <mxPoint x="450" y="330" as="targetPoint"/>
                        <Array as="points">
                            <mxPoint x="470" y="340"/>
                        </Array>
                    </mxGeometry>
                </mxCell>
                <mxCell id="211" value="" style="edgeStyle=segmentEdgeStyle;endArrow=none;html=1;curved=0;rounded=0;endSize=8;startSize=8;endFill=0;entryX=0.5;entryY=1;entryDx=0;entryDy=0;exitX=0;exitY=0.5;exitDx=0;exitDy=0;" edge="1" parent="1" source="48" target="205">
                    <mxGeometry width="50" height="50" relative="1" as="geometry">
                        <mxPoint x="520" y="730" as="sourcePoint"/>
                        <mxPoint x="440.0000000000002" y="740" as="targetPoint"/>
                        <Array as="points">
                            <mxPoint x="470" y="746"/>
                        </Array>
                    </mxGeometry>
                </mxCell>
                <mxCell id="228" value="(1, 1)" style="text;strokeColor=none;align=center;fillColor=none;html=1;verticalAlign=middle;whiteSpace=wrap;rounded=0;fontSize=14;" vertex="1" parent="1">
                    <mxGeometry x="470" y="455.5" width="40" height="30" as="geometry"/>
                </mxCell>
                <mxCell id="229" value="(1, 1)" style="text;strokeColor=none;align=center;fillColor=none;html=1;verticalAlign=middle;whiteSpace=wrap;rounded=0;fontSize=14;" vertex="1" parent="1">
                    <mxGeometry x="470" y="581" width="40" height="30" as="geometry"/>
                </mxCell>
                <mxCell id="230" value="(0, n)" style="text;strokeColor=none;align=center;fillColor=none;html=1;verticalAlign=middle;whiteSpace=wrap;rounded=0;fontSize=14;" vertex="1" parent="1">
                    <mxGeometry x="550" y="319" width="40" height="20" as="geometry"/>
                </mxCell>
                <mxCell id="235" value="" style="edgeStyle=segmentEdgeStyle;endArrow=none;html=1;curved=0;rounded=0;endSize=8;startSize=8;endFill=0;exitX=1;exitY=0.5;exitDx=0;exitDy=0;entryX=0;entryY=1;entryDx=0;entryDy=0;" edge="1" parent="1" source="185" target="192">
                    <mxGeometry width="50" height="50" relative="1" as="geometry">
                        <mxPoint x="860" y="300" as="sourcePoint"/>
                        <mxPoint x="900" y="339" as="targetPoint"/>
                        <Array as="points">
                            <mxPoint x="910" y="306"/>
                        </Array>
                    </mxGeometry>
                </mxCell>
                <mxCell id="236" value="" style="rounded=0;whiteSpace=wrap;html=1;fontSize=14;strokeColor=default;strokeWidth=1;" vertex="1" parent="1">
                    <mxGeometry x="910" y="133" width="120" height="65" as="geometry"/>
                </mxCell>
                <mxCell id="237" value="&lt;b&gt;&lt;font style=&quot;font-size: 14px;&quot;&gt;Ads?&lt;/font&gt;&lt;/b&gt;" style="text;strokeColor=none;align=center;fillColor=none;html=1;verticalAlign=middle;whiteSpace=wrap;rounded=0;strokeWidth=1;" vertex="1" parent="1">
                    <mxGeometry x="910" y="133" width="120" height="25" as="geometry"/>
                </mxCell>
                <mxCell id="238" style="edgeStyle=none;html=1;exitX=0;exitY=0;exitDx=0;exitDy=0;entryX=1;entryY=0;entryDx=0;entryDy=0;endArrow=none;endFill=0;" edge="1" parent="1">
                    <mxGeometry relative="1" as="geometry">
                        <mxPoint x="910" y="158" as="sourcePoint"/>
                        <mxPoint x="1030.0000000000002" y="158" as="targetPoint"/>
                    </mxGeometry>
                </mxCell>
                <mxCell id="243" value="(0, n)" style="text;strokeColor=none;align=center;fillColor=none;html=1;verticalAlign=middle;whiteSpace=wrap;rounded=0;fontSize=14;" vertex="1" parent="1">
                    <mxGeometry x="550" y="722" width="40" height="24" as="geometry"/>
                </mxCell>
                <mxCell id="261" value="" style="rhombus;whiteSpace=wrap;html=1;fontSize=14;strokeColor=default;" vertex="1" parent="1">
                    <mxGeometry x="287.0000000000001" y="508" width="40" height="40" as="geometry"/>
                </mxCell>
                <mxCell id="262" value="&lt;b&gt;Favorite&lt;/b&gt;" style="text;strokeColor=none;align=left;fillColor=none;html=1;verticalAlign=middle;whiteSpace=wrap;rounded=0;fontSize=14;" vertex="1" parent="1">
                    <mxGeometry x="332" y="518" width="60" height="20" as="geometry"/>
                </mxCell>
                <mxCell id="265" value="" style="rhombus;whiteSpace=wrap;html=1;fontSize=14;strokeColor=default;" vertex="1" parent="1">
                    <mxGeometry x="169.0000000000001" y="508" width="40" height="40" as="geometry"/>
                </mxCell>
                <mxCell id="266" value="&lt;b&gt;InQueue&lt;/b&gt;" style="text;strokeColor=none;align=left;fillColor=none;html=1;verticalAlign=middle;whiteSpace=wrap;rounded=0;fontSize=14;" vertex="1" parent="1">
                    <mxGeometry x="214" y="518" width="60" height="20" as="geometry"/>
                </mxCell>
                <mxCell id="267" value="" style="edgeStyle=segmentEdgeStyle;endArrow=none;html=1;curved=0;rounded=0;endSize=8;startSize=8;endFill=0;entryX=0.5;entryY=0;entryDx=0;entryDy=0;exitX=0;exitY=0.5;exitDx=0;exitDy=0;" edge="1" parent="1" source="5" target="261">
                    <mxGeometry width="50" height="50" relative="1" as="geometry">
                        <mxPoint x="360" y="430" as="sourcePoint"/>
                        <mxPoint x="320" y="470" as="targetPoint"/>
                        <Array as="points">
                            <mxPoint x="307" y="306"/>
                        </Array>
                    </mxGeometry>
                </mxCell>
                <mxCell id="269" value="" style="edgeStyle=segmentEdgeStyle;endArrow=none;html=1;curved=0;rounded=0;endSize=8;startSize=8;endFill=0;exitX=0;exitY=0.75;exitDx=0;exitDy=0;entryX=0.5;entryY=0;entryDx=0;entryDy=0;" edge="1" parent="1" source="3" target="265">
                    <mxGeometry width="50" height="50" relative="1" as="geometry">
                        <mxPoint x="480" y="220" as="sourcePoint"/>
                        <mxPoint x="440" y="260" as="targetPoint"/>
                        <Array as="points">
                            <mxPoint x="560" y="269"/>
                            <mxPoint x="189" y="269"/>
                        </Array>
                    </mxGeometry>
                </mxCell>
                <mxCell id="270" value="" style="edgeStyle=segmentEdgeStyle;endArrow=none;html=1;curved=0;rounded=0;endSize=8;startSize=8;endFill=0;entryX=0.5;entryY=1;entryDx=0;entryDy=0;exitX=0;exitY=0.25;exitDx=0;exitDy=0;" edge="1" parent="1" source="45" target="261">
                    <mxGeometry width="50" height="50" relative="1" as="geometry">
                        <mxPoint x="500" y="790" as="sourcePoint"/>
                        <mxPoint x="330.0000000000002" y="670" as="targetPoint"/>
                        <Array as="points">
                            <mxPoint x="307" y="781"/>
                        </Array>
                    </mxGeometry>
                </mxCell>
                <mxCell id="271" value="" style="edgeStyle=segmentEdgeStyle;endArrow=none;html=1;curved=0;rounded=0;endSize=8;startSize=8;endFill=0;entryX=0.5;entryY=1;entryDx=0;entryDy=0;exitX=0;exitY=1;exitDx=0;exitDy=0;" edge="1" parent="1" source="46" target="265">
                    <mxGeometry width="50" height="50" relative="1" as="geometry">
                        <mxPoint x="240" y="850" as="sourcePoint"/>
                        <mxPoint x="200.00000000000023" y="810" as="targetPoint"/>
                        <Array as="points">
                            <mxPoint x="189" y="816"/>
                        </Array>
                    </mxGeometry>
                </mxCell>
                <mxCell id="272" value="(0, n)" style="text;strokeColor=none;align=center;fillColor=none;html=1;verticalAlign=middle;whiteSpace=wrap;rounded=0;fontSize=14;" vertex="1" parent="1">
                    <mxGeometry x="550" y="248" width="40" height="20" as="geometry"/>
                </mxCell>
                <mxCell id="273" value="(0, n)" style="text;strokeColor=none;align=center;fillColor=none;html=1;verticalAlign=middle;whiteSpace=wrap;rounded=0;fontSize=14;" vertex="1" parent="1">
                    <mxGeometry x="550" y="285" width="40" height="20" as="geometry"/>
                </mxCell>
                <mxCell id="275" value="(0, n)" style="text;strokeColor=none;align=center;fillColor=none;html=1;verticalAlign=middle;whiteSpace=wrap;rounded=0;fontSize=14;" vertex="1" parent="1">
                    <mxGeometry x="550" y="792" width="40" height="24" as="geometry"/>
                </mxCell>
                <mxCell id="276" value="(0, n)" style="text;strokeColor=none;align=center;fillColor=none;html=1;verticalAlign=middle;whiteSpace=wrap;rounded=0;fontSize=14;" vertex="1" parent="1">
                    <mxGeometry x="550" y="756" width="40" height="24" as="geometry"/>
                </mxCell>
                <mxCell id="277" value="" style="rounded=0;whiteSpace=wrap;html=1;fontSize=14;strokeColor=default;strokeWidth=1;" vertex="1" parent="1">
                    <mxGeometry x="950" y="206" width="120" height="65" as="geometry"/>
                </mxCell>
                <mxCell id="278" value="&lt;b&gt;&lt;font style=&quot;font-size: 14px;&quot;&gt;Sharing?&lt;/font&gt;&lt;/b&gt;" style="text;strokeColor=none;align=center;fillColor=none;html=1;verticalAlign=middle;whiteSpace=wrap;rounded=0;strokeWidth=1;" vertex="1" parent="1">
                    <mxGeometry x="950" y="206" width="120" height="25" as="geometry"/>
                </mxCell>
                <mxCell id="279" style="edgeStyle=none;html=1;exitX=0;exitY=0;exitDx=0;exitDy=0;entryX=1;entryY=0;entryDx=0;entryDy=0;endArrow=none;endFill=0;" edge="1" parent="1">
                    <mxGeometry relative="1" as="geometry">
                        <mxPoint x="950" y="231" as="sourcePoint"/>
                        <mxPoint x="1070" y="231" as="targetPoint"/>
                    </mxGeometry>
                </mxCell>
                <mxCell id="282" value="&lt;b&gt;&lt;font style=&quot;font-size: 14px;&quot;&gt;SPRINT 2&lt;/font&gt;&lt;/b&gt;" style="text;strokeColor=none;align=center;fillColor=none;html=1;verticalAlign=middle;whiteSpace=wrap;rounded=0;strokeWidth=1;" vertex="1" parent="1">
                    <mxGeometry x="920" y="85.5" width="130" height="25" as="geometry"/>
                </mxCell>
            </root>
        </mxGraphModel>
    </diagram>
</mxfile>